<?xml version="1.0" encoding="UTF-8"?>
<svg width="177px" height="177px" viewBox="0 0 177 177" version="1.1" xmlns="http://www.w3.org/2000/svg" xmlns:xlink="http://www.w3.org/1999/xlink">
    <title>Bitcoin Logo</title>
    <g id="Bitcoin-Logo" stroke="none" stroke-width="1" fill="none" fill-rule="evenodd">
        <circle id="Background" fill="#F7931A" cx="88.5" cy="88.5" r="88.5"></circle>
        <path d="M94.438,47.969 C99.188,47.235 103.625,47.719 107.781,49.297 C108.594,49.578 109.297,48.844 109.063,48.031 L105.938,37.125 C105.688,36.219 104.781,35.766 103.875,36.031 C101.469,36.797 98.844,37.094 96.031,37.031 C95.875,33.969 94.625,31.094 92.188,29.125 C89.625,27.125 86.375,26.406 83.094,26.813 C77.844,27.563 72.781,29.719 68.594,32.938 C64.406,36.156 61.406,40.312 60.188,45.375 C58.969,50.438 60.438,55.656 64.438,60.938 C68.25,66 74.156,70.156 82.094,73.406 C80.25,78.125 76.906,82.031 72.094,85.125 C67.281,88.219 61.219,90.281 54.031,91.312 C53.219,91.469 52.531,92.219 52.594,93.031 L54.813,104.281 C54.969,105.094 55.75,105.562 56.531,105.344 C62.344,104.156 67.531,103.469 72.063,102.375 C76.594,101.281 80.719,99.875 84.375,98.156 C87.938,96.469 91.188,94.469 94.125,92.156 C97.063,89.844 99.688,87.188 101.969,84.188 C104.25,81.188 106.063,77.719 107.406,73.813 C109.563,67.375 108.813,61.281 105.156,55.531 C101.5,49.75 95.688,48.688 94.438,47.969 Z" id="B" fill="#FFFFFF"></path>
    </g>
</svg>
